# xmcd
# 
# Track frame offsets:
#     150
#     22575
#     42375
#     65250
#     90075
#     109462
#     133725
#     154762
#     172950
#     192375
#     215550
#     237750
#     264975
#     289200
#     310800
# 
# Disc length: 4441
# 
# Revision: 18
# Processed by: cddbd v1.5.2PL0 Copyright (c) Steve Scherf et al.
# Submitted via: fre:ac v1.0.17
# 
DISCID=c811570f
DTITLE=レミオロメン - レミオベスト
DYEAR=2009
DGENRE=J-Rock
TTITLE0=Sakura
TTITLE1=3月9日
TTITLE2=スタンドバイミー
TTITLE3=電話
TTITLE4=ビールとプリン
TTITLE5=もっと遠くへ
TTITLE6=雨上がり
TTITLE7=南風
TTITLE8=明日に架かる橋
TTITLE9=太陽の下
TTITLE10=Wonderful and Beautiful
TTITLE11=アイランド
TTITLE12=粉雪
TTITLE13=紙ふぶき
TTITLE14=夢の蕾
EXTD=YEAR: 2009
EXTT0=
EXTT1=
EXTT2=
EXTT3=
EXTT4=
EXTT5=
EXTT6=
EXTT7=
EXTT8=
EXTT9=
EXTT10=
EXTT11=
EXTT12=
EXTT13=
EXTT14=
PLAYORDER=
